HIERARCHY
ROOT Hips
{
	OFFSET 0.000000 0.000000 0.000000
	CHANNELS 6 Xposition Yposition Zposition Xrotation Zrotation Yrotation
	JOINT Spine
	{
		OFFSET 0.000000 0.000011 -22.304516
		CHANNELS 6 Xposition Yposition Zposition Xrotation Zrotation Yrotation
		JOINT Spine1
		{
			OFFSET 0.000000 0.000025 -50.470581
			CHANNELS 6 Xposition Yposition Zposition Xrotation Zrotation Yrotation
			JOINT Neck
			{
				OFFSET 0.000000 0.000027 -55.910698
				CHANNELS 6 Xposition Yposition Zposition Xrotation Zrotation Yrotation
				JOINT Head
				{
					OFFSET 0.000000 5.440146 -42.160976
					CHANNELS 6 Xposition Yposition Zposition Xrotation Zrotation Yrotation
					End Site
					{
						OFFSET 0.000000 0.000027 -54.401260
					}
				}
			}
			JOINT LeftShoulder
			{
				OFFSET 10.857560 -1.186532 -45.619255
				CHANNELS 6 Xposition Yposition Zposition Xrotation Zrotation Yrotation
				JOINT LeftArm
				{
					OFFSET 31.468504 0.000000 0.000000
					CHANNELS 6 Xposition Yposition Zposition Xrotation Zrotation Yrotation
					JOINT LeftForeArm
					{
						OFFSET 81.606392 0.000000 0.000000
						CHANNELS 6 Xposition Yposition Zposition Xrotation Zrotation Yrotation
						JOINT LeftHand
						{
							OFFSET 72.986526 0.000000 0.000000
							CHANNELS 6 Xposition Yposition Zposition Xrotation Zrotation Yrotation
							End Site
							{
								OFFSET 40.800957 0.000000 0.000000
							}
						}
					}
				}
			}
			JOINT RightShoulder
			{
				OFFSET -10.879749 -1.186532 -45.619255
				CHANNELS 6 Xposition Yposition Zposition Xrotation Zrotation Yrotation
				JOINT RightArm
				{
					OFFSET -31.468504 0.000000 0.000000
					CHANNELS 6 Xposition Yposition Zposition Xrotation Zrotation Yrotation
					JOINT RightForeArm
					{
						OFFSET -81.606392 0.000000 0.000000
						CHANNELS 6 Xposition Yposition Zposition Xrotation Zrotation Yrotation
						JOINT RightHand
						{
							OFFSET -72.986526 0.000000 0.000000
							CHANNELS 6 Xposition Yposition Zposition Xrotation Zrotation Yrotation
							End Site
							{
								OFFSET -40.800957 0.000000 0.000000
							}
						}
					}
				}
			}
		}
	}
	JOINT LeftUpLeg
	{
		OFFSET 27.200626 0.000000 0.000000
		CHANNELS 6 Xposition Yposition Zposition Xrotation Zrotation Yrotation
		JOINT LeftLeg
		{
			OFFSET 0.000000 -0.000069 141.571121
			CHANNELS 6 Xposition Yposition Zposition Xrotation Zrotation Yrotation
			JOINT LeftFoot
			{
				OFFSET 0.000000 -0.000056 113.727898
				CHANNELS 6 Xposition Yposition Zposition Xrotation Zrotation Yrotation
				JOINT LeftToeBase
				{
					OFFSET 0.000000 40.800934 17.680408
					CHANNELS 6 Xposition Yposition Zposition Xrotation Zrotation Yrotation
					End Site
					{
						OFFSET 0.000000 10.880253 0.000000
					}
				}
			}
		}
	}
	JOINT RightUpLeg
	{
		OFFSET -27.200626 0.000000 0.000000
		CHANNELS 6 Xposition Yposition Zposition Xrotation Zrotation Yrotation
		JOINT RightLeg
		{
			OFFSET 0.000000 -0.000069 141.571121
			CHANNELS 6 Xposition Yposition Zposition Xrotation Zrotation Yrotation
			JOINT RightFoot
			{
				OFFSET 0.000000 -0.000056 113.727898
				CHANNELS 6 Xposition Yposition Zposition Xrotation Zrotation Yrotation
				JOINT RightToeBase
				{
					OFFSET 0.000000 40.800934 17.680408
					CHANNELS 6 Xposition Yposition Zposition Xrotation Zrotation Yrotation
					End Site
					{
						OFFSET 0.000000 10.880253 0.000000
					}
				}
			}
		}
	}
}
MOTION
Frames: 7
Frame Time: 0.041667
-9.291942 -36.503399 -233.432556 9.004196 0.648088 2.855058 -0.000004 -0.000011 -22.304512 7.642985 -2.305859 -4.416918 -0.000002 0.000023 -50.470619 4.005812 -0.854086 0.256925 -0.000008 0.000025 -55.910637 12.812443 -20.390288 18.234057 -0.000018 5.440084 -42.161057 14.817679 -21.095574 -27.895444 10.857556 -1.186546 -45.619213 -2.091668 10.572633 2.427925 31.468534 0.000022 -0.000036 23.989047 11.732240 -18.484876 81.606369 -0.000029 -0.000015 -12.681557 6.693453 15.880919 72.986557 -0.000008 0.000037 -13.786402 -0.480039 38.992327 -10.879744 -1.186544 -45.619194 -0.147045 -6.360621 -9.108909 -31.468485 0.000060 0.000020 84.526405 -35.041521 -28.117618 -81.606438 -0.000050 -0.000027 237.278969 225.998843 -271.726235 -72.986511 -0.000010 0.000001 10.006078 0.045776 -51.636876 27.200626 -0.000020 -0.000035 -11.705709 12.356076 28.274328 -0.000030 -0.000063 141.571091 27.946248 -29.508289 -27.680791 -0.000028 -0.000051 113.727844 -3.910425 -19.327417 -7.948490 -0.000002 40.800964 17.680407 -0.000003 -0.000005 -0.000001 -27.200628 -0.000027 -0.000003 -21.568388 -1.722908 -33.698395 0.000013 -0.000075 141.571136 34.566710 3.157134 32.909484 0.000047 -0.000042 113.727890 -24.730180 29.829803 -7.313253 -0.000007 40.800949 17.680439 0.000001 0.000001 0.000001 
-9.592335 -36.628925 -233.178802 9.061386 0.615306 2.963362 0.000004 0.000013 -22.304508 7.571224 -2.242809 -4.412730 -0.000001 0.000025 -50.470642 3.942831 -0.829084 0.168666 -0.000011 0.000025 -55.910732 12.836570 -20.545083 18.270640 0.000003 5.440170 -42.161045 14.910016 -21.225474 -28.088214 10.857553 -1.186547 -45.619270 -2.247764 10.770196 2.486784 31.468523 0.000005 -0.000042 21.980054 10.517869 -18.044456 81.606384 -0.000001 0.000012 -9.727166 5.462442 12.192404 72.986542 -0.000056 -0.000026 -10.700700 -1.121880 38.295727 -10.879750 -1.186543 -45.619255 -0.121703 -6.422683 -9.122369 -31.468473 0.000035 0.000028 84.166714 -34.698064 -27.871461 -81.606323 -0.000001 0.000008 237.717467 226.310764 -271.759375 -72.986458 0.000004 0.000072 10.298335 -0.362165 -51.461381 27.200632 0.000002 -0.000028 -11.765881 12.489690 28.316019 -0.000047 -0.000059 141.571075 28.104135 -29.541459 -27.890692 0.000002 -0.000046 113.727859 -3.909219 -19.331459 -7.966048 -0.000015 40.800938 17.680408 -0.000001 -0.000004 -0.000002 -27.200634 0.000004 0.000010 -21.831141 -1.851957 -33.907518 0.000024 -0.000078 141.571106 34.960593 2.786680 33.170821 0.000021 -0.000061 113.727936 -24.950818 29.944468 -7.420898 -0.000003 40.800964 17.680407 -0.000000 -0.000006 -0.000002 
-9.975940 -36.673927 -232.903183 9.028415 0.504041 3.014189 0.000001 0.000016 -22.304531 7.474638 -2.092952 -4.386175 0.000000 0.000024 -50.470562 3.944077 -0.776774 0.141712 -0.000008 0.000055 -55.910698 12.877604 -20.716640 18.319834 0.000007 5.440171 -42.160995 14.948501 -21.381999 -28.303037 10.857564 -1.186513 -45.619244 -2.357511 10.959303 2.606051 31.468519 0.000020 -0.000027 19.100959 8.972177 -17.633399 81.606400 -0.000028 0.000059 -6.204880 4.671551 8.261075 72.986557 -0.000032 -0.000103 -7.231583 -2.034854 37.413276 -10.879741 -1.186520 -45.619282 -0.138560 -6.539014 -9.121759 -31.468481 -0.000010 0.000073 83.762694 -34.485509 -27.589390 -81.606430 -0.000002 -0.000002 237.982123 226.343098 -271.599850 -72.986511 0.000004 0.000005 10.423518 0.102547 -51.663930 27.200638 0.000025 0.000001 -11.728616 12.684579 28.431151 -0.000053 -0.000050 141.571106 28.259148 -29.531102 -28.123225 -0.000026 -0.000059 113.727890 -3.920571 -19.351828 -7.994755 -0.000011 40.800961 17.680408 -0.000001 -0.000003 -0.000003 -27.200628 0.000021 0.000022 -21.967335 -1.860189 -34.086766 -0.000005 -0.000066 141.571075 35.262252 2.237066 33.366587 0.000036 -0.000061 113.727951 -25.221988 30.025266 -7.478925 -0.000005 40.800938 17.680410 0.000000 -0.000001 0.000002 
-10.347800 -36.741013 -232.625351 9.035400 0.409741 3.060810 -0.000003 0.000019 -22.304518 7.372117 -1.937038 -4.346919 -0.000000 0.000048 -50.470577 3.891079 -0.722954 0.148044 -0.000007 0.000018 -55.910698 12.911113 -20.896337 18.387093 0.000027 5.440127 -42.160980 15.016304 -21.540649 -28.548406 10.857559 -1.186563 -45.619217 -2.374473 11.133870 2.758691 31.468519 -0.000009 0.000041 17.593193 8.256543 -17.263935 81.606377 -0.000009 0.000011 -3.753502 3.491868 5.065341 72.986511 -0.000028 -0.000065 -4.722939 -2.501766 36.079798 -10.879742 -1.186558 -45.619190 -0.114976 -6.590128 -9.156283 -31.468512 0.000003 0.000048 83.440118 -34.291176 -27.434051 -81.606407 -0.000132 0.000015 238.206836 226.543509 -271.487151 -72.986481 0.000008 0.000022 10.491445 0.176642 -51.673687 27.200632 0.000002 -0.000007 -11.887381 12.637947 28.513395 -0.000023 -0.000059 141.571121 28.402210 -29.302478 -28.196728 -0.000026 -0.000047 113.727943 -3.933797 -19.329796 -8.033581 -0.000014 40.800941 17.680408 -0.000003 -0.000006 -0.000005 -27.200630 0.000006 0.000000 -22.169863 -1.827502 -34.249936 0.000023 -0.000052 141.571060 35.453108 1.682033 33.681285 0.000004 -0.000060 113.727951 -25.640115 30.438216 -7.995904 -0.000003 40.800938 17.680408 -0.000001 -0.000005 -0.000000 
-10.704686 -36.793179 -232.340714 9.017486 0.317112 3.138983 -0.000001 0.000006 -22.304602 7.274119 -1.745775 -4.246442 0.000001 0.000015 -50.470627 3.881288 -0.657997 0.197846 -0.000011 0.000025 -55.910778 12.965873 -21.070843 18.399005 0.000059 5.440187 -42.161037 15.030922 -21.702899 -28.748215 10.857556 -1.186518 -45.619202 -2.507522 11.247771 2.898742 31.468531 0.000016 -0.000065 17.999154 8.491599 -16.980496 81.606400 0.000003 -0.000007 -2.273910 1.862054 2.652176 72.986549 -0.000050 -0.000018 -3.146827 -2.664160 34.594840 -10.879745 -1.186516 -45.619221 -0.127114 -6.731786 -9.194454 -31.468489 0.000016 -0.000054 83.090126 -34.058690 -27.182654 -81.606415 0.000019 0.000030 238.590747 227.029013 -271.530182 -72.986465 -0.000016 -0.000013 10.641967 -0.431629 -51.303375 27.200623 0.000001 -0.000060 -11.868407 12.808677 28.595007 -0.000006 -0.000063 141.571075 28.544797 -29.282759 -28.415175 -0.000025 -0.000042 113.727943 -3.958948 -19.354492 -8.037230 -0.000029 40.800926 17.680410 0.000004 0.000004 0.000001 -27.200634 -0.000005 -0.000089 -22.328898 -1.878398 -34.470411 0.000012 -0.000073 141.571152 35.647201 0.990388 33.981670 0.000042 -0.000059 113.727882 -25.971712 30.829995 -8.283222 0.000021 40.800945 17.680412 0.000004 -0.000002 0.000002 
-11.022702 -36.841190 -232.025116 9.034472 0.197382 3.216679 0.000002 0.000000 -22.304512 7.190222 -1.538510 -4.178930 -0.000001 0.000037 -50.470612 3.825883 -0.586920 0.207390 -0.000022 0.000036 -55.910690 13.027603 -21.232495 18.479910 -0.000037 5.440198 -42.160954 15.076787 -21.843596 -29.019367 10.857560 -1.186554 -45.619312 -2.641312 11.336907 3.116875 31.468515 0.000008 -0.000126 19.231137 9.195646 -16.990842 81.606430 0.000046 0.000061 -1.067301 0.168544 0.920539 72.986542 -0.000000 -0.000056 -1.820973 -2.500389 33.484173 -10.879745 -1.186535 -45.619202 -0.126121 -6.860746 -9.192116 -31.468515 -0.000002 0.000043 82.945886 -33.866127 -27.062260 -81.606400 -0.000083 -0.000014 238.478131 226.978620 -271.340029 -72.986519 0.000008 0.000038 10.653150 -0.286894 -51.471636 27.200630 -0.000001 0.000010 -11.902170 13.001533 28.666888 -0.000013 -0.000061 141.571075 28.700236 -29.222155 -28.633808 -0.000006 -0.000067 113.727829 -4.060290 -19.393926 -7.999995 -0.000033 40.800964 17.680414 0.000006 0.000001 -0.000001 -27.200632 -0.000009 -0.000021 -22.521260 -1.885068 -34.719836 0.000017 -0.000073 141.571091 35.857212 0.358472 34.298577 0.000046 -0.000042 113.727966 -26.298602 31.138682 -8.572696 -0.000009 40.800941 17.680407 -0.000002 -0.000004 -0.000001 
-11.415440 -36.904530 -231.750839 9.051303 0.137542 3.234842 0.000003 -0.000001 -22.304543 7.055389 -1.371032 -4.074967 0.000004 0.000044 -50.470547 3.695164 -0.532827 0.369505 -0.000011 0.000043 -55.910645 13.108676 -21.390047 18.527279 0.000033 5.440155 -42.161064 15.171421 -21.964422 -29.301884 10.857566 -1.186534 -45.619171 -2.679635 11.350531 3.302958 31.468515 0.000017 -0.000090 21.101530 10.204064 -17.147772 81.606407 0.000009 -0.000065 -0.584465 -1.075117 -0.189537 72.986496 0.000014 0.000015 -1.192576 -2.140103 31.635377 -10.879739 -1.186550 -45.619236 -0.044442 -6.939030 -9.256242 -31.468485 0.000010 -0.000032 82.787692 -33.738659 -27.013618 -81.606422 -0.000119 -0.000003 238.282460 226.882492 -271.103104 -72.986526 0.000008 0.000038 10.621573 -0.060341 -51.612700 27.200632 0.000001 -0.000030 -11.913417 13.131396 28.827998 -0.000015 -0.000057 141.571091 28.858584 -29.201115 -28.852990 -0.000012 -0.000037 113.727959 -4.075708 -19.386464 -8.026889 0.000008 40.800945 17.680410 -0.000001 -0.000003 -0.000003 -27.200628 -0.000002 -0.000048 -22.706184 -1.953941 -34.816804 0.000011 -0.000065 141.571106 36.140833 -0.084970 34.533932 0.000028 -0.000031 113.727959 -26.575279 31.324928 -8.790819 -0.000005 40.800934 17.680408 0.000000 0.000003 -0.000002 
